<?xml version="1.0" encoding="UTF-8" standalone="no"?>
<svg
   xmlns:dc="http://purl.org/dc/elements/1.1/"
   xmlns:cc="http://creativecommons.org/ns#"
   xmlns:rdf="http://www.w3.org/1999/02/22-rdf-syntax-ns#"
   xmlns:svg="http://www.w3.org/2000/svg"
   xmlns="http://www.w3.org/2000/svg"
   xmlns:sodipodi="http://sodipodi.sourceforge.net/DTD/sodipodi-0.dtd"
   xmlns:inkscape="http://www.inkscape.org/namespaces/inkscape"
   version="1.1"
   x="0px"
   y="0px"
   viewBox="0 0 88.699997 76"
   xml:space="preserve"
   id="svg2"
   inkscape:version="0.91 r13725"
   sodipodi:docname="noun_454654_cc.svg"
   width="88.699997"
   height="76"><metadata
     id="metadata18"><rdf:RDF><cc:Work
         rdf:about=""><dc:format>image/svg+xml</dc:format><dc:type
           rdf:resource="http://purl.org/dc/dcmitype/StillImage" /><dc:title></dc:title></cc:Work></rdf:RDF></metadata><defs
     id="defs16" /><sodipodi:namedview
     pagecolor="#ffffff"
     bordercolor="#666666"
     borderopacity="1"
     objecttolerance="10"
     gridtolerance="10"
     guidetolerance="10"
     inkscape:pageopacity="0"
     inkscape:pageshadow="2"
     inkscape:window-width="640"
     inkscape:window-height="480"
     id="namedview14"
     showgrid="false"
     fit-margin-top="0"
     fit-margin-left="0"
     fit-margin-right="0"
     fit-margin-bottom="0"
     inkscape:zoom="1.888"
     inkscape:cx="44.3"
     inkscape:cy="25.5"
     inkscape:window-x="0"
     inkscape:window-y="0"
     inkscape:window-maximized="0"
     inkscape:current-layer="svg2" /><style
     type="text/css"
     id="style4">
	.st0{fill-rule:evenodd;clip-rule:evenodd;}
</style><g
     id="g6"
     transform="translate(-5.7,-12)"><path
       d="m 94.4,41.6 c 0,-4.4 -2.6,-8.4 -6.6,-10.2 -1,-6.2 -6.1,-11 -12.3,-11.5 -1.7,-3.5 -5.3,-5.8 -9.3,-5.8 0,0 0,0 0,0 0,0 0,0 0,0 -0.5,0 -1,0.1 -1.5,0.1 0,0 -0.1,0 -0.1,0 -0.5,0.1 -1.1,0.2 -1.6,0.4 C 61,13 58.5,12 55.9,12 53.8,12 51.7,12.6 50,13.8 48.2,13 46.2,12.6 44.1,12.6 c -4.1,0 -8,1.7 -10.7,4.8 -0.9,-0.2 -1.7,-0.3 -2.6,-0.3 -3.6,0 -6.9,1.8 -8.8,4.9 -0.1,0 -0.3,0 -0.4,0 -0.2,0 -0.4,0 -0.5,0 -0.2,0 -0.4,0.1 -0.6,0.1 -0.2,0 -0.3,0.1 -0.5,0.1 -0.2,0 -0.4,0.1 -0.6,0.2 -0.2,0 -0.3,0.1 -0.5,0.1 -0.2,0.1 -0.4,0.1 -0.5,0.2 -0.2,0.1 -0.4,0.1 -0.5,0.2 -0.1,0.1 -0.3,0.1 -0.4,0.2 -0.2,0.1 -0.4,0.2 -0.6,0.3 0,0 0,0 0,0 -3.5,1.9 -5.9,5.6 -6.2,9.8 0,0 0,0.1 0,0.1 -3.2,3 -5,7.3 -5,11.7 0,8.9 7.3,16.2 16.2,16.2 0.9,0 1.9,-0.1 2.8,-0.2 1.2,0.4 2.5,0.6 3.8,0.7 2.6,6.4 7.8,9.8 14.9,9.8 6.8,0 15,6.9 15,15 l 0,1.5 11.4,0 -1.3,-9.3 c 7.9,0.8 15.4,-4.3 17.4,-12.2 0.3,-1.4 0.5,-2.8 0.5,-4.1 4.7,-1.7 8,-6.2 8,-11.3 0,-1.7 -0.3,-3.3 -1,-4.8 0.6,-1.5 1,-3.1 1,-4.7 z M 90.1,47 c 0.7,1.3 1,2.6 1,4.1 0,3.4 -2,6.5 -5.1,7.9 -1.3,-5.9 -5.9,-10.7 -11.8,-12.2 -0.9,-0.2 -1.8,0.3 -2,1.2 -0.2,0.9 0.3,1.8 1.2,2 5.3,1.3 9.2,5.8 9.7,11.2 0.2,1.5 0,3 -0.3,4.5 C 81,72.7 74,76.9 67,75.1 l -2.3,-0.6 1.4,10.2 -4.6,0 C 60.5,75.3 51.1,68 43.3,68 c -5.4,0 -9.2,-2.2 -11.4,-6.6 0,-0.1 0,-0.2 -0.1,-0.3 -1.7,-3.5 -0.2,-7.8 3.4,-9.5 C 36,51.2 36.4,50.2 36,49.4 35.6,48.6 34.6,48.2 33.8,48.6 30,50.4 27.9,54.2 27.9,58.1 27,58 26.1,57.8 25.3,57.5 l -0.4,-0.2 -0.4,0.1 c -0.8,0.2 -1.7,0.3 -2.6,0.3 -7.1,0 -13,-5.8 -13,-13 0,-2.6 0.8,-5.2 2.3,-7.3 1.2,3.8 4.4,6.8 8.3,7.8 -0.3,0.5 -0.5,1 -0.6,1.5 -0.4,1.8 -0.2,3.6 0.8,5.2 0.3,0.5 0.8,0.8 1.4,0.8 0.3,0 0.6,-0.1 0.8,-0.2 0.8,-0.5 1,-1.5 0.6,-2.2 -0.5,-0.8 -0.6,-1.8 -0.4,-2.7 0.2,-0.9 0.8,-1.7 1.6,-2.2 0.8,-0.5 1,-1.5 0.6,-2.2 -0.4,-0.6 -1.1,-0.9 -1.8,-0.7 -4.7,-0.1 -8.6,-4 -8.6,-8.7 0,-4.8 3.9,-8.7 8.7,-8.7 0.1,0 0.1,0 0.2,0 l 1.3,0.1 0.5,-1 c 1.2,-2.5 3.7,-4 6.4,-4 0.9,0 1.7,0.2 2.6,0.5 l 1.1,0.4 0.7,-1 c 2.1,-2.8 5.4,-4.4 8.9,-4.4 1.8,0 3.7,0.5 5.3,1.3 l 1,0.5 0.8,-0.7 c 1.3,-1.1 2.9,-1.7 4.6,-1.7 1.4,0 2.8,0.4 3.9,1.2 -2.4,1.9 -4,4.8 -4,8.1 0,0.9 0.7,1.6 1.6,1.6 0.9,0 1.6,-0.7 1.6,-1.6 0,-2.7 1.5,-5 3.6,-6.2 L 63.2,18 c 1,-0.4 2,-0.7 3,-0.7 3,0 5.6,1.9 6.7,4.7 l 0.4,1.1 1.1,0 c 5.4,0 9.9,4.3 10.3,9.6 l 0.1,1.1 1,0.3 c 3.2,1.1 5.4,4.1 5.4,7.5 0,1.3 -0.3,2.7 -1,3.8 l -0.4,0.8 0.3,0.8 z m -34.4,8.3 c 0,-3 -1.5,-5.8 -4,-7.5 0,0 0,0 0,0 -4.3,-2 -7.3,-6.1 -7.9,-10.8 -0.1,-0.7 0.4,-1.4 1.1,-1.5 0.7,-0.1 1.4,0.4 1.5,1.1 0.6,4.3 3.5,7.9 7.6,9.3 2.9,1 6,0.8 8.8,-0.5 2.8,-1.3 4.8,-3.7 5.8,-6.6 0.2,-0.7 1,-1 1.7,-0.8 0.7,0.2 1,1 0.8,1.7 -1.2,3.6 -3.8,6.4 -7.2,8 -1.9,0.9 -4,1.4 -6.1,1.4 -0.4,0 -0.8,0 -1.3,-0.1 1.1,1.8 1.8,3.9 1.8,6.2 0,0.7 -0.6,1.3 -1.3,1.3 -0.7,0 -1.3,-0.5 -1.3,-1.2 z m 24.7,-15 c 0,0.7 -0.6,1.3 -1.3,1.3 -0.7,0 -1.3,-0.6 -1.3,-1.3 0,-5.9 -4.8,-10.7 -10.7,-10.7 -0.7,0 -1.3,-0.6 -1.3,-1.3 0,-0.7 0.6,-1.3 1.3,-1.3 7.3,0 13.3,6 13.3,13.3 z M 46,26.9 c 0,-0.7 0.6,-1.3 1.3,-1.3 5.7,0 10.4,4.6 10.4,10.4 0,0.7 -0.6,1.3 -1.3,1.3 -0.7,0 -1.3,-0.6 -1.3,-1.3 0,-4.3 -3.5,-7.8 -7.8,-7.8 -0.7,0 -1.3,-0.6 -1.3,-1.3 z m -3.1,29.7 c -0.2,0.4 -0.7,0.6 -1.1,0.6 -0.2,0 -0.5,-0.1 -0.7,-0.2 -0.6,-0.4 -0.8,-1.2 -0.4,-1.8 2.2,-3.5 1.1,-8.1 -2.4,-10.3 -0.6,-0.4 -0.8,-1.2 -0.4,-1.8 0.4,-0.6 1.2,-0.8 1.8,-0.4 4.7,3 6.1,9.2 3.2,13.9 z m -1.2,-23 c -2,0 -3.8,-0.9 -5.2,-2.2 -2.3,3.3 -6.1,5.1 -9.9,5.1 -2,0 -4.1,-0.5 -6,-1.6 -0.6,-0.4 -0.8,-1.2 -0.5,-1.8 0.4,-0.6 1.2,-0.8 1.8,-0.5 4.5,2.6 10.3,1.1 13,-3.5 -0.5,-1.1 -0.8,-2.3 -0.8,-3.5 0,-0.7 0.6,-1.3 1.3,-1.3 0.7,0 1.3,0.6 1.3,1.3 -0.1,2.8 2.2,5.2 5,5.3 0.7,0 1.3,0.6 1.3,1.3 0,0.9 -0.6,1.4 -1.3,1.4 0,0 0,0 0,0 z M 72.2,59 c 0.6,0.4 0.7,1.2 0.3,1.8 -2.5,3.6 -6.5,5.6 -10.6,5.6 -2.5,0 -5,-0.7 -7.2,-2.2 -0.6,-0.4 -0.7,-1.2 -0.3,-1.8 0.4,-0.6 1.2,-0.7 1.8,-0.3 2.3,1.5 5,2.1 7.7,1.6 2.7,-0.5 5,-2 6.6,-4.3 0.3,-0.6 1.1,-0.8 1.7,-0.4 z"
       id="path8"
       inkscape:connector-curvature="0" /></g></svg>